<svg version="1" xmlns="http://www.w3.org/2000/svg" width="100" height="61.284" viewBox="0 0 100 61.284"><path d="M80.596 22.157c-2.17 0-4.255.364-6.205 1.024-1.512-3.352-3.279-7.274-5.348-11.878l1.32-3.63 4.537-.083v-3.795h-17.078c-1.494 2.044.605 2.035 8.168 3.712l-1.32 3.713h-33.743c2.273-7.939.989-7.361 11.22-7.343v-3.877c-14.084.137-11.642-1.45-19.184 22.81-1.154-.215-2.343-.333-3.56-.333-10.699 0-19.403 8.705-19.403 19.404s8.704 19.403 19.403 19.403c10.7 0 19.404-8.704 19.404-19.403 0-8.006-4.875-14.895-11.812-17.855.422-1.328.876-2.746 1.363-4.261 28.386 29.941 17.737 25.087 33.012 25.694l.216-.002c1.809 8.839 9.646 15.508 19.01 15.508 10.7 0 19.404-8.704 19.404-19.403s-8.704-19.405-19.404-19.405zm-46.328 19.724c0 8.196-6.668 14.864-14.864 14.864s-14.865-6.668-14.865-14.864 6.668-14.864 14.864-14.864c.739 0 1.465.056 2.175.161-4.735 14.932-4.167 13.232-4.196 14.491-.023 1.062.834 1.904 1.912 1.977 1.932-.196 1.497.124 6.325-15.261 5.1 2.356 8.649 7.517 8.649 13.496zm19.16-.925l-23.477-25.584 33.019-.059-9.542 25.643zm7.766.537l-3.61-.011 9.367-24.588 3.634 8.052c-5.606 3.39-9.366 9.536-9.391 16.547zm11.277-12.369l5.604 12.417-12.342-.035c.02-5.176 2.699-9.735 6.738-12.382zm8.125 27.302c-6.854 0-12.638-4.666-14.348-10.988 15.471.015 16.851.808 17.067-1.876-.021-.782-.312-1.318-7.046-16.22 1.369-.418 2.822-.645 4.326-.645 8.196 0 14.864 6.668 14.864 14.865s-6.667 14.864-14.863 14.864z"/></svg>