<svg version="1" xmlns="http://www.w3.org/2000/svg" width="100" height="83.648" viewBox="0 0 100 83.648"><path d="M15.727 43.753"/><path d="M90.925 28.696l-8.197-21.167c-1.533-4.052-4.883-7.5-11.223-7.529h-43.078c-6.311.029-9.661 3.477-11.222 7.529l-8.199 21.167c-3.255.42-9.016 4.245-9.006 11.491v26.951h7.999v8.603c-.02 10.606 14.989 10.48 14.985 0v-8.603h53.964v8.603c.033 10.48 15.042 10.606 15.052 0v-8.603h8v-26.951c-.025-7.246-5.79-11.071-9.075-11.491zm-75.198 22.178c-3.834.011-6.938-3.187-6.922-7.12-.016-3.96 3.088-7.161 6.922-7.128 3.822-.033 6.926 3.168 6.921 7.128.005 3.933-3.1 7.13-6.921 7.12zm34.273-22.377h-32.459l6.182-16.668c.746-2.366 1.904-4.059 4.639-4.1h43.278000000000006c2.693.041 3.854 1.733 4.636 4.1l6.183 16.668h-32.459zm34.274 22.377c-3.861.011-6.967-3.187-6.988-7.12.021-3.96 3.127-7.161 6.988-7.128 3.795-.033 6.898 3.168 6.922 7.128-.024 3.933-3.127 7.13-6.922 7.12zM84.274 43.753"/></svg>