<svg version="1" xmlns="http://www.w3.org/2000/svg" width="81.59" height="99.992" viewBox="0 0 81.59 99.992"><path d="M68.848 68.51M12.687 68.51"/><path d="M77.619 14.775c-1.098-5.528-4.622-7.731-9.931-9.93-5.189-2.177-17.668-4.766-26.894-4.845-9.243.079-21.722 2.668-26.948 4.846-5.271 2.199-8.795 4.402-9.875 9.93l-3.971 30.508v42.091h6.84v6.564c-.027 8.071 11.745 8.071 11.75 0v-6.564h44.41v6.564c-.014 8.071 11.759 8.071 11.75 0v-6.564h6.84v-42.091l-3.971-30.509zm-53.623-7.06h33.597c3.286-.009 3.286 4.949 0 4.965h-33.596999999999994c-3.302-.016-3.302-4.974 0-4.965zm-11.309 66.476c-3.101-.015-5.631-2.542-5.627-5.682-.004-3.099 2.526-5.627 5.627-5.627 3.136 0 5.665 2.528 5.683 5.627-.018 3.14-2.547 5.668-5.683 5.682zm27.694-25.709h-29.955c-2.925.028-3.54-2.081-3.253-4.192l3.088-22.177c.425-2.67 1.336-4.443 4.854-4.468h51.362c3.498.025 4.412 1.797 4.854 4.468l3.09 22.177c.266 2.112-.348 4.22-3.256 4.192h-30.784zm28.467 25.709c-3.1-.015-5.628-2.542-5.628-5.682 0-3.099 2.528-5.627 5.628-5.627 3.137 0 5.667 2.528 5.681 5.627-.014 3.14-2.544 5.668-5.681 5.682zM40.381-.007l.414.007.414-.007h-.828z"/></svg>