<svg xmlns="http://www.w3.org/2000/svg" width="100" height="100" viewBox="0 0 100 100"><path d="M48.947 11.08c0-3.972-3.111-7.08-7.081-7.08-3.974 0-7.082 3.108-7.082 7.08 0 3.971 3.108 7.082 7.082 7.082 3.969 0 7.081-3.111 7.081-7.082zM71.465 30.522s-8.447-4.743-12.188-6.708c-3.744-1.97-11.175-7.06-17.801-1.17-3.009 2.675-6.476 16.356-6.476 16.356l-14 8.634 2.299 3.204 15.251-5.544 4.262-5.516 4.513 9.945-9.109 15.962-7.188 26.828 7.438 2.508 8.357-25.072 6.185-6.102 13.539 32.01 6.52-3.01-10.948-38.945s1.365-2.799 1.365-7.254c0-5.11-4.039-13.473-4.039-13.473l6.611 1.518 1.48 16.639 4.162.391-.233-21.201z"/></svg>